<svg width="23" height="24" viewBox="0 0 23 24" fill="none" xmlns="http://www.w3.org/2000/svg">
<path d="M16.2042 15.2261H15.1803L14.8173 14.8755C16.1314 13.3485 16.8537 11.3991 16.8522 9.38304C16.8522 7.71379 16.3581 6.08201 15.4324 4.69407C14.5067 3.30613 13.1909 2.22437 11.6515 1.58557C10.1121 0.946772 8.41819 0.779633 6.78396 1.10529C5.14973 1.43095 3.64859 2.23477 2.47037 3.41512C1.29216 4.59546 0.489785 6.09931 0.164716 7.7365C-0.160352 9.37368 0.00648461 11.0707 0.64413 12.6129C1.28178 14.1551 2.36159 15.4732 3.74702 16.4006C5.13246 17.328 6.76129 17.823 8.42753 17.823C10.5143 17.823 12.4325 17.0569 13.9101 15.7844L14.26 16.148V17.1737L20.7406 23.653L22.6718 21.7183L16.2042 15.2261ZM8.42753 15.2261C5.20023 15.2261 2.59505 12.6162 2.59505 9.38304C2.59505 6.1499 5.20023 3.54002 8.42753 3.54002C11.6548 3.54002 14.26 6.1499 14.26 9.38304C14.26 12.6162 11.6548 15.2261 8.42753 15.2261Z" fill="white"/>
</svg>
